# xmcd CD database file
# Copyright (C) 1995 Ti Kan
#
# Track frame offsets:
#	150
#	21852
#	35140
#	48955
#	68457
#	88575
#	102185
#	122197
#	135352
#
# Disc length: 2094 seconds
#
# Revision: 1
# Processed by: cddbd v1.4b41PL1 Copyright (c) Steve Scherf et al.
# Submitted via: xmcd 1.4
#
DISCID=6f082c09
DTITLE=Muddy Waters - Muddy Waters At Newport 1960
DYEAR=1900
DGENRE=
TTITLE0=I Got My Brand On You
TTITLE1=I'm Your Hoochie Coochie Man
TTITLE2=Baby, Please Don't Go
TTITLE3=Soon Forgotten
TTITLE4=Tiger In Your Tank
TTITLE5=I Feel So Good
TTITLE6=I've Got My Mojo Working
TTITLE7=I've Got My Mojo Working, Part 2
TTITLE8=Goodbye Newport Blues
EXTD=
EXTT0=
EXTT1=
EXTT2=
EXTT3=
EXTT4=
EXTT5=
EXTT6=
EXTT7=
EXTT8=
PLAYORDER=
